<svg xmlns="http://www.w3.org/2000/svg" focusable="false" viewBox="0 0 24 24" color="var(--token-a7f7ae5f-a181-442b-8823-be0ca1b170fe, rgb(255, 255, 255)) /* {&quot;name&quot;:&quot;Neutral / 01&quot;} */" style="user-select: none; width: 100%; height: 100%; display: inline-block; fill: var(--token-a7f7ae5f-a181-442b-8823-be0ca1b170fe, rgb(255, 255, 255)); flex-shrink: 0;"><path d="M5 3h14a2 2 0 0 1 2 2v14a2 2 0 0 1-2 2H5a2 2 0 0 1-2-2V5a2 2 0 0 1 2-2m13 2h-2.5A3.5 3.5 0 0 0 12 8.5V11h-2v3h2v7h3v-7h3v-3h-3V9a1 1 0 0 1 1-1h2V5z"></path></svg>