<svg xmlns="http://www.w3.org/2000/svg" width="137" height="29" fill="none"><path fill="#4D592B" d="M54.488 4.344c-.32.832-.65 1.845-.992 3.04-.341 1.173-.693 2.613-1.056 4.32h-.704c.192-1.088.267-2.027.224-2.816-.021-.81-.181-1.493-.48-2.048-.405-.768-.96-1.333-1.664-1.696-.683-.363-1.44-.544-2.272-.544-1.067 0-2.112.299-3.136.896-1.003.597-1.93 1.419-2.784 2.464a18.684 18.684 0 0 0-2.272 3.584 21.69 21.69 0 0 0-1.504 4.288 18.921 18.921 0 0 0-.544 4.48c0 2.133.395 3.723 1.184 4.768.81 1.024 1.899 1.536 3.264 1.536.81 0 1.685-.192 2.624-.576a6.87 6.87 0 0 0 2.432-1.664 8.944 8.944 0 0 0 1.472-2.048c.427-.768.896-1.77 1.408-3.008h.704c-.533 1.941-.95 3.51-1.248 4.704a62.611 62.611 0 0 0-.64 2.976H47.8c.064-.448.096-.81.096-1.088 0-.47-.085-.736-.256-.8-.17-.064-.437.021-.8.256-.555.384-1.141.736-1.76 1.056a11.21 11.21 0 0 1-2.016.736c-.704.192-1.504.288-2.4.288-2.71 0-4.757-.672-6.144-2.016-1.387-1.344-2.08-3.264-2.08-5.76 0-1.493.235-2.987.704-4.48a18.18 18.18 0 0 1 2.048-4.256A17.145 17.145 0 0 1 38.36 7.32a14.461 14.461 0 0 1 4.096-2.496c1.515-.619 3.136-.928 4.864-.928.896 0 1.632.107 2.208.32A4.803 4.803 0 0 1 51 4.984c.405.299.757.63 1.056.992.299.32.587.363.864.128.277-.256.576-.843.896-1.76h.672zm10.758 11.488c-.81 2.283-1.568 4.17-2.272 5.664-.704 1.493-1.408 2.677-2.112 3.552-.682.875-1.386 1.493-2.112 1.856a5.084 5.084 0 0 1-2.304.544c-.896 0-1.578-.203-2.048-.608-.448-.405-.693-.96-.736-1.664-.042-.725.096-1.579.416-2.56l3.104-9.408c.214-.64.267-1.088.16-1.344-.106-.256-.32-.384-.64-.384s-.661.181-1.024.544c-.341.363-.714 1.099-1.12 2.208l-.512 1.44h-.608l.8-2.336c.32-.896.704-1.579 1.152-2.048.47-.47.96-.79 1.472-.96a4.529 4.529 0 0 1 1.536-.288c.939 0 1.61.213 2.016.64.427.405.64.981.64 1.728.022.725-.138 1.568-.48 2.528l-2.912 8.8c-.512 1.536-.362 2.304.448 2.304.448 0 .939-.245 1.472-.736.534-.512 1.078-1.227 1.632-2.144a28.755 28.755 0 0 0 1.696-3.264 45.231 45.231 0 0 0 1.632-4.032 52.375 52.375 0 0 0 1.44-4.576l-.736 4.544zm.992 8.448c-.15.533-.213.96-.192 1.28.022.299.214.448.576.448.406 0 .779-.203 1.12-.608.363-.427.726-1.141 1.088-2.144l.544-1.504h.608l-.832 2.4c-.298.853-.682 1.525-1.152 2.016-.448.47-.938.8-1.472.992a4.348 4.348 0 0 1-1.536.288c-.512 0-.95-.096-1.312-.288a1.685 1.685 0 0 1-.8-.736c-.213-.384-.31-.853-.288-1.408.043-.555.17-1.237.384-2.048l3.2-12.48a33.23 33.23 0 0 0 2.176-.128 11.91 11.91 0 0 0 1.888-.32l-4 14.24zM76.88 4.984c.064-.79.384-1.419.96-1.888a3.096 3.096 0 0 1 2.017-.704c.704 0 1.237.203 1.6.608.383.384.543.885.48 1.504-.065.725-.385 1.333-.96 1.824a3.013 3.013 0 0 1-2.016.736c-.704 0-1.248-.192-1.632-.576-.363-.405-.513-.907-.449-1.504zm-1.12 8.224c.385-1.152.257-1.728-.383-1.728-.427 0-.811.224-1.153.672-.34.427-.704 1.12-1.088 2.08l-.544 1.504h-.607l.832-2.4c.32-.853.703-1.515 1.151-1.984.448-.49.95-.832 1.505-1.024a4.97 4.97 0 0 1 1.632-.288c.746 0 1.311.139 1.695.416.384.277.64.64.768 1.088.129.448.16.939.097 1.472a7.334 7.334 0 0 1-.353 1.504l-3.392 9.76c-.191.576-.245 1.013-.16 1.312.086.277.288.416.609.416.34 0 .682-.181 1.023-.544.363-.384.747-1.12 1.152-2.208l.544-1.44h.608l-.8 2.336c-.32.853-.703 1.525-1.151 2.016-.448.47-.94.8-1.472.992a4.611 4.611 0 0 1-1.569.288c-.938 0-1.62-.203-2.047-.608-.427-.427-.64-1.003-.64-1.728 0-.747.17-1.6.511-2.56l3.233-9.344zm7.362 13.312c.17.085.352.16.544.224.191.043.458.064.8.064.81 0 1.482-.256 2.016-.768.554-.533.832-1.27.832-2.208 0-.683-.15-1.376-.448-2.08-.278-.704-.704-1.483-1.28-2.336a37.835 37.835 0 0 1-1.408-2.208c-.406-.725-.609-1.557-.609-2.496 0-.917.225-1.717.672-2.4.449-.704 1.089-1.259 1.92-1.664.833-.405 1.803-.608 2.913-.608.725 0 1.44.085 2.144.256.704.17 1.28.48 1.728.928.448.448.672 1.099.672 1.952 0 .299-.065.619-.193.96a2.25 2.25 0 0 1-.576.832c-.255.235-.597.352-1.023.352-.449 0-.822-.17-1.12-.512-.3-.363-.448-.821-.448-1.376 0-.49.085-.95.255-1.376.192-.427.416-.8.672-1.12-.298-.17-.725-.256-1.28-.256-.767 0-1.386.245-1.855.736-.47.49-.705 1.184-.705 2.08 0 .47.075.917.225 1.344.17.405.394.832.671 1.28.3.427.63.928.993 1.504.597.96 1.066 1.824 1.407 2.592.342.747.513 1.515.513 2.304 0 .939-.257 1.781-.769 2.528-.49.747-1.173 1.333-2.047 1.76-.875.427-1.9.64-3.073.64a8.166 8.166 0 0 1-2.4-.352c-.746-.213-1.365-.576-1.856-1.088-.469-.512-.703-1.216-.703-2.112 0-.49.138-.939.415-1.344.257-.427.662-.64 1.216-.64.555 0 .971.224 1.248.672.278.448.416 1.003.416 1.664 0 .47-.063.907-.191 1.312-.107.384-.203.704-.288.96zM99.436 4.984c.064-.79.384-1.419.96-1.888a3.096 3.096 0 0 1 2.016-.704c.704 0 1.237.203 1.6.608.384.384.544.885.48 1.504-.064.725-.384 1.333-.96 1.824a3.013 3.013 0 0 1-2.016.736c-.704 0-1.248-.192-1.632-.576-.363-.405-.512-.907-.448-1.504zm-1.12 8.224c.384-1.152.256-1.728-.384-1.728-.427 0-.81.224-1.152.672-.342.427-.704 1.12-1.088 2.08l-.544 1.504h-.608l.832-2.4c.32-.853.704-1.515 1.152-1.984.448-.49.95-.832 1.504-1.024a4.97 4.97 0 0 1 1.632-.288c.746 0 1.312.139 1.696.416.384.277.64.64.768 1.088.128.448.16.939.096 1.472a7.38 7.38 0 0 1-.352 1.504l-3.392 9.76c-.192.576-.246 1.013-.16 1.312.085.277.288.416.608.416.341 0 .682-.181 1.024-.544.362-.384.746-1.12 1.152-2.208l.544-1.44h.608l-.8 2.336c-.32.853-.704 1.525-1.152 2.016-.448.47-.939.8-1.472.992a4.611 4.611 0 0 1-1.568.288c-.939 0-1.622-.203-2.048-.608-.427-.427-.64-1.003-.64-1.728 0-.747.17-1.6.512-2.56l3.232-9.344zM108.109 27h-3.936l3.872-13.792a7.75 7.75 0 0 0 .192-.832c.042-.256.021-.47-.064-.64-.064-.17-.246-.256-.544-.256-.406 0-.779.203-1.12.608-.32.384-.672 1.099-1.056 2.144l-.544 1.504h-.608l.832-2.4c.448-1.259 1.024-2.123 1.728-2.592a4.12 4.12 0 0 1 2.336-.704c.704 0 1.237.139 1.6.416.384.277.629.64.736 1.088.106.427.128.907.064 1.44-.064.512-.16 1.024-.288 1.536l-3.2 12.48zm1.184-5.824c.789-2.197 1.546-4.01 2.272-5.44.725-1.43 1.429-2.56 2.112-3.392.682-.853 1.386-1.45 2.112-1.792a5.272 5.272 0 0 1 2.272-.512c1.045 0 1.77.235 2.176.704.426.448.629 1.045.608 1.792 0 .725-.139 1.504-.416 2.336l-3.136 9.408c-.192.576-.246 1.013-.16 1.312.085.277.298.416.64.416.32 0 .65-.181.992-.544.362-.363.746-1.099 1.152-2.208l.512-1.44h.608l-.8 2.336c-.299.896-.683 1.579-1.152 2.048-.448.47-.939.79-1.472.96a4.348 4.348 0 0 1-1.536.288c-.555 0-1.035-.096-1.44-.288a2.042 2.042 0 0 1-.896-.736c-.278-.405-.395-.928-.352-1.568.042-.64.213-1.408.512-2.304l2.912-8.8c.106-.341.192-.683.256-1.024.064-.363.053-.661-.032-.896-.086-.256-.31-.384-.672-.384-.448 0-.939.256-1.472.768-.534.49-1.088 1.184-1.664 2.08a29.583 29.583 0 0 0-1.728 3.136 48.706 48.706 0 0 0-1.664 3.904 51.036 51.036 0 0 0-1.376 4.32l.832-4.48zm16.618-1.216a34.3 34.3 0 0 0 2.752-1.184c.854-.427 1.568-.875 2.144-1.344a8.61 8.61 0 0 0 1.92-2.464c.491-.96.736-2.005.736-3.136 0-.49-.042-.81-.128-.96a.415.415 0 0 0-.384-.224c-.49 0-1.024.235-1.6.704-.576.47-1.141 1.12-1.696 1.952a18.685 18.685 0 0 0-1.536 2.752 19.898 19.898 0 0 0-1.088 3.232 14.082 14.082 0 0 0-.416 3.36c0 1.13.214 1.93.64 2.4.448.448 1.035.672 1.76.672.619 0 1.355-.203 2.208-.608.854-.405 1.696-1.141 2.528-2.208l.512.256c-.426.704-.992 1.387-1.696 2.048a9.162 9.162 0 0 1-2.432 1.632c-.896.405-1.888.608-2.976.608-.896 0-1.706-.17-2.432-.512a3.881 3.881 0 0 1-1.696-1.504c-.405-.683-.608-1.515-.608-2.496 0-1.045.182-2.155.544-3.328a16.273 16.273 0 0 1 1.536-3.488 16.101 16.101 0 0 1 2.4-3.072 11.373 11.373 0 0 1 3.104-2.176 8.173 8.173 0 0 1 3.648-.832c.854 0 1.568.203 2.144.608.576.384.864.981.864 1.792 0 .832-.234 1.61-.704 2.336-.469.725-1.109 1.387-1.92 1.984a15.908 15.908 0 0 1-2.624 1.6 25.32 25.32 0 0 1-2.848 1.216c-.96.341-1.856.619-2.688.832l.032-.448z"/><g clip-path="url(#a)"><mask id="b" width="29" height="29" x="0" y="0" maskUnits="userSpaceOnUse" style="mask-type:luminance"><path fill="#fff" d="M0 0h28.333v28.333H0V0z"/></mask><g stroke-linecap="round" stroke-linejoin="round" stroke-miterlimit="10" stroke-width="1.66" mask="url(#b)"><path stroke="#4D592B" d="M27.503 14.167H.83c0 4.335 2.774 8.013 6.64 9.382v2.239h13.393v-2.24c3.866-1.368 6.64-5.046 6.64-9.381zm-26.105 3.32h25.537"/><path stroke="#ED5700" d="M9.186 2.546a2.348 2.348 0 0 0 0 3.32 2.348 2.348 0 0 1 0 3.32m4.981-6.64a2.348 2.348 0 0 0 0 3.32 2.348 2.348 0 0 1 0 3.32m4.98-6.64a2.348 2.348 0 0 0 0 3.32 2.348 2.348 0 0 1 0 3.32"/></g></g><defs><clipPath id="a"><path fill="#fff" d="M0 0h28.333v28.333H0z"/></clipPath></defs></svg>